<mxfile host="app.diagrams.net" modified="2023-07-20T07:57:40.536Z" agent="Mozilla/5.0 (Windows NT 10.0; Win64; x64) AppleWebKit/537.36 (KHTML, like Gecko) Chrome/114.0.0.0 Safari/537.36 Edg/114.0.1823.82" etag="mklzdHQclAbebjzjfU9z" version="21.3.2" type="github">
  <diagram name="Page-1" id="fc2ac565-0d4e-3f0d-88b0-a54af1634ed7">
    <mxGraphModel dx="1158" dy="638" grid="1" gridSize="1" guides="1" tooltips="1" connect="0" arrows="1" fold="1" page="1" pageScale="1.5" pageWidth="1169" pageHeight="827" background="none" math="0" shadow="0">
      <root>
        <mxCell id="0" style=";html=1;" />
        <mxCell id="1" style=";html=1;" parent="0" />
        <mxCell id="67c90442a009f359-291" value="" style="align=left;strokeColor=#CCCCCC;html=1;" parent="1" vertex="1">
          <mxGeometry x="617" y="150" width="719" height="20" as="geometry" />
        </mxCell>
        <mxCell id="4" value="22年10月" style="strokeWidth=1;fontStyle=0;html=1;" parent="1" vertex="1">
          <mxGeometry x="617" y="130" width="70" height="20" as="geometry" />
        </mxCell>
        <mxCell id="67c90442a009f359-278" value="22年11月" style="strokeWidth=1;fontStyle=0;html=1;" parent="1" vertex="1">
          <mxGeometry x="687" y="130" width="70" height="20" as="geometry" />
        </mxCell>
        <mxCell id="67c90442a009f359-279" value="22年12月" style="strokeWidth=1;fontStyle=0;html=1;" parent="1" vertex="1">
          <mxGeometry x="757" y="130" width="70" height="20" as="geometry" />
        </mxCell>
        <mxCell id="67c90442a009f359-280" value="23年1月" style="strokeWidth=1;fontStyle=0;html=1;" parent="1" vertex="1">
          <mxGeometry x="827" y="130" width="70" height="20" as="geometry" />
        </mxCell>
        <mxCell id="67c90442a009f359-281" value="23年2月" style="strokeWidth=1;fontStyle=0;html=1;" parent="1" vertex="1">
          <mxGeometry x="897" y="130" width="70" height="20" as="geometry" />
        </mxCell>
        <mxCell id="67c90442a009f359-282" value="23年3月" style="strokeWidth=1;fontStyle=0;html=1;" parent="1" vertex="1">
          <mxGeometry x="967" y="130" width="73" height="20" as="geometry" />
        </mxCell>
        <mxCell id="67c90442a009f359-292" value="" style="align=left;strokeColor=#CCCCCC;html=1;" parent="1" vertex="1">
          <mxGeometry x="617" y="170" width="719" height="20" as="geometry" />
        </mxCell>
        <mxCell id="67c90442a009f359-293" value="" style="align=left;strokeColor=#CCCCCC;html=1;" parent="1" vertex="1">
          <mxGeometry x="617" y="190" width="719" height="20" as="geometry" />
        </mxCell>
        <mxCell id="67c90442a009f359-294" value="" style="align=left;strokeColor=#CCCCCC;html=1;" parent="1" vertex="1">
          <mxGeometry x="617" y="210" width="719" height="20" as="geometry" />
        </mxCell>
        <mxCell id="67c90442a009f359-295" value="" style="align=left;strokeColor=#CCCCCC;html=1;" parent="1" vertex="1">
          <mxGeometry x="617" y="230" width="719" height="20" as="geometry" />
        </mxCell>
        <mxCell id="67c90442a009f359-296" value="" style="align=left;strokeColor=#CCCCCC;html=1;" parent="1" vertex="1">
          <mxGeometry x="617" y="250" width="719" height="20" as="geometry" />
        </mxCell>
        <mxCell id="67c90442a009f359-297" value="" style="align=left;strokeColor=#CCCCCC;html=1;" parent="1" vertex="1">
          <mxGeometry x="617" y="270" width="719" height="20" as="geometry" />
        </mxCell>
        <mxCell id="67c90442a009f359-299" value="" style="whiteSpace=wrap;html=1;strokeWidth=2;fillColor=#CCCCCC;gradientColor=none;fontSize=14;align=center;strokeColor=#999999;" parent="1" vertex="1">
          <mxGeometry x="617" y="150" width="70" height="20" as="geometry" />
        </mxCell>
        <mxCell id="67c90442a009f359-300" value="" style="whiteSpace=wrap;html=1;strokeWidth=2;fillColor=#CCCCCC;gradientColor=none;fontSize=14;align=center;strokeColor=#999999;" parent="1" vertex="1">
          <mxGeometry x="657" y="170" width="65" height="20" as="geometry" />
        </mxCell>
        <mxCell id="67c90442a009f359-301" value="" style="whiteSpace=wrap;html=1;strokeWidth=2;fillColor=#CCCCCC;gradientColor=none;fontSize=14;align=center;strokeColor=#999999;" parent="1" vertex="1">
          <mxGeometry x="686" y="190" width="36" height="20" as="geometry" />
        </mxCell>
        <mxCell id="67c90442a009f359-302" value="" style="whiteSpace=wrap;html=1;strokeWidth=2;fillColor=#CCCCCC;gradientColor=none;fontSize=14;align=center;strokeColor=#999999;" parent="1" vertex="1">
          <mxGeometry x="722" y="210" width="265" height="20" as="geometry" />
        </mxCell>
        <mxCell id="67c90442a009f359-303" value="" style="whiteSpace=wrap;html=1;strokeWidth=2;fillColor=#CCCCCC;gradientColor=none;fontSize=14;align=center;strokeColor=#999999;" parent="1" vertex="1">
          <mxGeometry x="722" y="230" width="486" height="20" as="geometry" />
        </mxCell>
        <mxCell id="67c90442a009f359-304" value="" style="whiteSpace=wrap;html=1;strokeWidth=2;fillColor=#CCCCCC;gradientColor=none;fontSize=14;align=center;strokeColor=#999999;" parent="1" vertex="1">
          <mxGeometry x="987" y="250" width="322" height="20" as="geometry" />
        </mxCell>
        <mxCell id="67c90442a009f359-305" value="" style="whiteSpace=wrap;html=1;strokeWidth=2;fillColor=#CCCCCC;gradientColor=none;fontSize=14;align=center;strokeColor=#999999;" parent="1" vertex="1">
          <mxGeometry x="1310" y="270" width="25" height="20" as="geometry" />
        </mxCell>
        <mxCell id="fdnkuMGL8KdHcozLjigW-100" value="" style="group" parent="1" vertex="1" connectable="0">
          <mxGeometry x="499" y="130" width="118" height="160" as="geometry" />
        </mxCell>
        <mxCell id="75" value="前期调研" style="align=left;strokeColor=#CCCCCC;html=1;" parent="fdnkuMGL8KdHcozLjigW-100" vertex="1">
          <mxGeometry x="1.4672707493446065e-13" y="19.9999999999997" width="117.99999999999986" height="19.999999999999943" as="geometry" />
        </mxCell>
        <mxCell id="80" value="生产制造" style="align=left;strokeColor=#CCCCCC;html=1;" parent="fdnkuMGL8KdHcozLjigW-100" vertex="1">
          <mxGeometry x="4.19220214098459e-14" y="40.000000000000085" width="117.99999999999997" height="19.99999999999993" as="geometry" />
        </mxCell>
        <mxCell id="85" value="监管平台部署" style="align=left;strokeColor=#CCCCCC;html=1;" parent="fdnkuMGL8KdHcozLjigW-100" vertex="1">
          <mxGeometry y="60.000000000000014" width="118.00000000000001" height="19.99999999999993" as="geometry" />
        </mxCell>
        <mxCell id="90" value="保密柜改造和安装" style="align=left;strokeColor=#CCCCCC;html=1;" parent="fdnkuMGL8KdHcozLjigW-100" vertex="1">
          <mxGeometry y="80.00000000000017" width="118.00000000000001" height="19.99999999999993" as="geometry" />
        </mxCell>
        <mxCell id="95" value="监管平台调优" style="align=left;strokeColor=#CCCCCC;html=1;" parent="fdnkuMGL8KdHcozLjigW-100" vertex="1">
          <mxGeometry x="2.7249313916399833e-13" y="100.00000000000033" width="117.99999999999973" height="19.99999999999993" as="geometry" />
        </mxCell>
        <mxCell id="100" value="试运行" style="align=left;strokeColor=#CCCCCC;html=1;" parent="fdnkuMGL8KdHcozLjigW-100" vertex="1">
          <mxGeometry x="2.7249313916399833e-13" y="120.00000000000014" width="117.99999999999973" height="19.99999999999993" as="geometry" />
        </mxCell>
        <mxCell id="2" value="任务" style="strokeWidth=1;fontStyle=0;html=1;" parent="fdnkuMGL8KdHcozLjigW-100" vertex="1">
          <mxGeometry x="4.19220214098459e-14" width="117.99999999999997" height="19.99999999999993" as="geometry" />
        </mxCell>
        <mxCell id="67c90442a009f359-289" value="项目验收" style="align=left;strokeColor=#CCCCCC;html=1;" parent="fdnkuMGL8KdHcozLjigW-100" vertex="1">
          <mxGeometry x="2.7249313916399833e-13" y="140.00000000000006" width="117.99999999999973" height="19.99999999999993" as="geometry" />
        </mxCell>
        <mxCell id="feszfGXPLcxNfwhRaRjh-100" value="23年4月" style="strokeWidth=1;fontStyle=0;html=1;" parent="1" vertex="1">
          <mxGeometry x="1041" y="130" width="73" height="20" as="geometry" />
        </mxCell>
        <mxCell id="feszfGXPLcxNfwhRaRjh-101" value="23年5月" style="strokeWidth=1;fontStyle=0;html=1;" parent="1" vertex="1">
          <mxGeometry x="1115" y="130" width="73" height="20" as="geometry" />
        </mxCell>
        <mxCell id="RhLsHf7YvNG_jF8RvM1L-100" value="23年6月" style="strokeWidth=1;fontStyle=0;html=1;" vertex="1" parent="1">
          <mxGeometry x="1189" y="130" width="73" height="20" as="geometry" />
        </mxCell>
        <mxCell id="RhLsHf7YvNG_jF8RvM1L-101" value="23年7月" style="strokeWidth=1;fontStyle=0;html=1;" vertex="1" parent="1">
          <mxGeometry x="1263" y="130" width="73" height="20" as="geometry" />
        </mxCell>
      </root>
    </mxGraphModel>
  </diagram>
</mxfile>
